<?xml version="1.0" encoding="utf-8"?>
<!-- Generator: Adobe Illustrator 22.0.0, SVG Export Plug-In . SVG Version: 6.00 Build 0)  -->
<svg version="1.1" id="图层_1" xmlns="http://www.w3.org/2000/svg" xmlns:xlink="http://www.w3.org/1999/xlink" x="0px" y="0px"
	 viewBox="0 0 2209.1 123.2" style="enable-background:new 0 0 2209.1 123.2;" xml:space="preserve">
<style type="text/css">
	.st0{fill:#6A7771;}
	.st1{fill:#FFFFFF;}
</style>
<path class="st0" d="M1108.1,121.2c-354.6,0-709.2,0-1063.8,0c-31.7,0-40.5-8.8-40.6-40.3c0-15.1-0.3-30.3,0.1-45.4
	C4.2,16.1,15.5,5.1,34.8,4.3c2.8-0.1,5.7,0,8.5,0c710.2,0,1420.3,0,2130.5,0c3.8,0,7.6-0.2,11.3,0.1c18,1.5,28.6,12.3,29.1,30.3
	c0.5,18.4,0.4,36.9,0,55.3c-0.4,19.4-11.6,30.4-31.1,31.2c-4.2,0.2-8.5,0-12.8,0C1816.4,121.2,1462.2,121.2,1108.1,121.2z
	 M1107.6,114.9c355.1,0,710.1,0,1065.2,0c4.7,0,9.5,0.2,14.2-0.1c13.2-0.7,20.8-8.1,21-21.5c0.3-20.3,0.4-40.7,0-61
	c-0.2-14-8-21.2-22.3-21.7c-3.3-0.1-6.6,0-9.9,0c-711.1,0-1422.2,0-2133.3,0c-3.3,0-6.6-0.1-9.9,0c-14.9,0.5-22.3,7.9-22.5,23
	C9.8,50.1,10,66.7,10,83.2c0,26.8,4.9,31.7,32.3,31.7C397.4,114.9,752.5,114.9,1107.6,114.9z"/>
<path class="st1" d="M256.9,36.9c1.9-1.9,3.8-3.7,5.7-5.6c0.2-0.2,0.4-0.3,0.7-0.3c3,0,6,0,9.1,0.3c-0.7,0.7-1.3,1.3-2,2
	c-1.3,1.3-2.4,3.1-4,3.8c-1.6,0.7-3.7,0.2-5.5,0.2c-1.3,0-2.5,0-3.8,0C257,37.2,257,37,256.9,36.9z"/>
<path class="st1" d="M182.3,31.5c-1.9,1.8-3.8,3.6-5.7,5.4c-0.2,0.2-0.4,0.4-0.6,0.4c-2.9,0-5.9,0-9.2,0c1.4-1.5,2.7-2.6,3.7-3.9
	c1.5-2,3.4-2.7,5.9-2.4c1.5,0.2,3,0,4.6,0c0.4,0,0.8,0.1,1.2,0.1C182.2,31.2,182.2,31.4,182.3,31.5z"/>
<path class="st1" d="M131.5,36.8c1.9-1.9,3.9-3.7,5.8-5.6c0.1-0.1,0.4-0.2,0.6-0.2c2.7,0,5.5,0,8.6,0c-0.9,0.9-1.6,1.6-2.2,2.3
	c-1.3,1.3-2.4,3.1-4,3.8c-1.6,0.7-3.7,0.2-5.5,0.2c-1,0-2,0-3,0C131.6,37.1,131.6,37,131.5,36.8z"/>
<path class="st1" d="M275.9,36.9c1.9-1.9,3.8-3.8,5.8-5.6c0.1-0.1,0.4-0.2,0.6-0.2c2.7,0,5.5,0,8.6,0c-0.8,0.8-1.3,1.4-1.8,1.9
	c-1.4,1.4-2.7,3.4-4.4,4.1c-1.7,0.7-4,0.2-6,0.2c-0.8,0-1.7,0-2.5,0C276.1,37.2,276,37,275.9,36.9z"/>
<path class="st1" d="M128,31.3c-1.1,1.1-2.3,2.2-3.3,3.4c-1.6,2.1-3.6,3-6.2,2.6c-1.6-0.2-3.2,0-4.7,0c-0.1-0.1-0.1-0.2-0.2-0.4
	c1.9-1.9,3.9-3.8,5.8-5.7c0.1-0.1,0.3-0.2,0.5-0.2c2.7,0,5.4,0,8,0C127.9,31.1,127.9,31.2,128,31.3z"/>
<path class="st1" d="M185.7,37c2-1.9,3.9-3.8,5.8-5.7c0.1-0.1,0.4-0.3,0.5-0.3c2.7,0,5.4,0,8.2,0.3c-0.8,0.8-1.8,1.6-2.5,2.6
	c-2.1,2.9-4.8,4-8.3,3.4c-1.1-0.2-2.2,0-3.3-0.1C186.1,37.3,186,37.2,185.7,37z"/>
<path class="st1" d="M218,31.4c-1.9,1.9-3.8,3.7-5.7,5.6c-0.1,0.1-0.4,0.3-0.6,0.3c-2.6,0-5.2,0-8.2,0c1.2-1.2,2.3-2.1,3.1-3.2
	c1.9-2.6,4.3-3.5,7.4-3.1c1.2,0.2,2.5,0,3.8,0C217.8,31.1,217.9,31.3,218,31.4z"/>
<path class="st1" d="M163.4,31.3c-1.4,1.5-3,2.8-4.3,4.4c-1.1,1.2-2.3,1.7-3.9,1.6c-1.8-0.1-3.5,0-5.7,0c0.9-1,1.6-1.7,2.2-2.3
	c1.3-1.3,2.5-3.1,4-3.8c1.6-0.7,3.7-0.2,5.5-0.2c0.6,0,1.3,0,1.9,0C163.3,31.1,163.4,31.2,163.4,31.3z"/>
<path class="st1" d="M253.4,31.4c-1.9,1.9-3.8,3.8-5.8,5.6c-0.1,0.1-0.4,0.2-0.6,0.2c-2.4,0-4.8,0-7.6,0c0.7-0.8,1.3-1.4,1.8-1.9
	c1.4-1.4,2.7-3.4,4.4-4.1c1.8-0.7,4.1-0.2,6.1-0.3c0.5,0,0.9,0,1.4,0C253.3,31.1,253.4,31.3,253.4,31.4z"/>
<path class="st1" d="M294.1,36.9c1.9-1.9,3.8-3.8,5.8-5.6c0.2-0.2,0.9,0,1.2,0.2c0.9,0.8,0.9,4.6,0,5.3c-0.3,0.2-0.7,0.4-1,0.4
	c-1.9,0-3.8,0-5.7,0C294.3,37.2,294.2,37,294.1,36.9z"/>
</svg>
