<?xml version="1.0" encoding="utf-8"?>
<!-- Generator: Adobe Illustrator 22.0.0, SVG Export Plug-In . SVG Version: 6.00 Build 0)  -->
<svg version="1.1" id="图层_1" xmlns="http://www.w3.org/2000/svg" xmlns:xlink="http://www.w3.org/1999/xlink" x="0px" y="0px"
	 viewBox="0 0 2180.6 90.4" style="enable-background:new 0 0 2180.6 90.4;" xml:space="preserve">
<style type="text/css">
	.st0{fill:#FFFFFF;}
	.st1{fill:#6D6F71;}
	.st2{fill:#FEFEFE;}
	.st3{fill:#F6F7F7;}
</style>
<path class="st0" d="M225.4,18.2c1.9-1.9,3.8-3.7,5.7-5.6c0.2-0.2,0.4-0.3,0.7-0.3c3,0,6,0,9.1,0.3c-0.7,0.7-1.3,1.3-2,2
	c-1.3,1.3-2.4,3.1-4,3.8c-1.6,0.7-3.7,0.2-5.5,0.2c-1.3,0-2.5,0-3.8,0C225.5,18.5,225.5,18.3,225.4,18.2z"/>
<path class="st0" d="M150.8,12.8c-1.9,1.8-3.8,3.6-5.7,5.4c-0.2,0.2-0.4,0.4-0.6,0.4c-2.9,0-5.9,0-9.2,0c1.4-1.5,2.7-2.6,3.7-3.9
	c1.5-2,3.4-2.7,5.9-2.4c1.5,0.2,3,0,4.6,0c0.4,0,0.8,0.1,1.2,0.1C150.7,12.6,150.7,12.7,150.8,12.8z"/>
<path class="st0" d="M100,18.2c1.9-1.9,3.9-3.7,5.8-5.6c0.1-0.1,0.4-0.2,0.6-0.2c2.7,0,5.5,0,8.6,0c-0.9,0.9-1.6,1.6-2.2,2.3
	c-1.3,1.3-2.4,3.1-4,3.8c-1.6,0.7-3.7,0.2-5.5,0.2c-1,0-2,0-3,0C100.1,18.5,100.1,18.3,100,18.2z"/>
<path class="st0" d="M244.4,18.2c1.9-1.9,3.8-3.8,5.8-5.6c0.1-0.1,0.4-0.2,0.6-0.2c2.7,0,5.5,0,8.6,0c-0.8,0.8-1.3,1.4-1.8,1.9
	c-1.4,1.4-2.7,3.4-4.4,4.1c-1.7,0.7-4,0.2-6,0.2c-0.8,0-1.7,0-2.5,0C244.6,18.5,244.5,18.4,244.4,18.2z"/>
<path class="st0" d="M96.5,12.7c-1.1,1.1-2.3,2.2-3.3,3.4c-1.6,2.1-3.6,3-6.2,2.6c-1.6-0.2-3.2,0-4.7,0c-0.1-0.1-0.1-0.2-0.2-0.4
	c1.9-1.9,3.9-3.8,5.8-5.7c0.1-0.1,0.3-0.2,0.5-0.2c2.7,0,5.4,0,8,0C96.4,12.5,96.4,12.6,96.5,12.7z"/>
<path class="st0" d="M154.2,18.3c2-1.9,3.9-3.8,5.8-5.7c0.1-0.1,0.4-0.3,0.5-0.3c2.7,0,5.4,0,8.2,0.3c-0.8,0.8-1.8,1.6-2.5,2.6
	c-2.1,2.9-4.8,4-8.3,3.4c-1.1-0.2-2.2,0-3.3-0.1C154.6,18.6,154.5,18.5,154.2,18.3z"/>
<path class="st0" d="M186.5,12.8c-1.9,1.9-3.8,3.7-5.7,5.6c-0.1,0.1-0.4,0.3-0.6,0.3c-2.6,0-5.2,0-8.2,0c1.2-1.2,2.3-2.1,3.1-3.2
	c1.9-2.6,4.3-3.5,7.4-3.1c1.2,0.2,2.5,0,3.8,0C186.3,12.5,186.4,12.6,186.5,12.8z"/>
<path class="st0" d="M131.9,12.7c-1.4,1.5-3,2.8-4.3,4.4c-1.1,1.2-2.3,1.7-3.9,1.6c-1.8-0.1-3.5,0-5.7,0c0.9-1,1.6-1.7,2.2-2.3
	c1.3-1.3,2.5-3.1,4-3.8c1.6-0.7,3.7-0.2,5.5-0.2c0.6,0,1.3,0,1.9,0C131.8,12.5,131.9,12.6,131.9,12.7z"/>
<path class="st0" d="M221.9,12.7c-1.9,1.9-3.8,3.8-5.8,5.6c-0.1,0.1-0.4,0.2-0.6,0.2c-2.4,0-4.8,0-7.6,0c0.7-0.8,1.3-1.4,1.8-1.9
	c1.4-1.4,2.7-3.4,4.4-4.1c1.8-0.7,4.1-0.2,6.1-0.3c0.5,0,0.9,0,1.4,0C221.8,12.5,221.9,12.6,221.9,12.7z"/>
<path class="st0" d="M262.6,18.2c1.9-1.9,3.8-3.8,5.8-5.6c0.2-0.2,0.9,0,1.2,0.2c0.9,0.8,0.9,4.6,0,5.3c-0.3,0.2-0.7,0.4-1,0.4
	c-1.9,0-3.8,0-5.7,0C262.8,18.5,262.7,18.4,262.6,18.2z"/>
<g>
	<path class="st1" d="M2153.2,88.9c-708.7,0-1417.3,0-2126,0c-11.8-1.4-18.4-8-19.8-19.8c0-15.1,0-30.2,0-45.4
		C13.5,4.4,15.6,2.8,36.1,2.4c2.8-0.1,5.7,0,8.5,0c697,0,1393.9,0,2090.9,0c35.6,0,38.9,3.4,38.9,39.3c0,6.1,0.1,12.3,0,18.4
		C2174.1,80.6,2172.5,82.8,2153.2,88.9z"/>
	<path class="st2" d="M2153.2,88.9c18.7-12.7,27.6-50.8,16.1-70.5c-4.8-8.2-12.1-13.2-21.7-14.3c-4.7-0.5-9.4-0.3-14.2-0.3
		c-695.9,0-1391.7,0-2087.6-0.3c-17.4,0-30.2,4.7-38.6,20.1C7.4,1,7.4,1,30,1c711,0,1422,0,2133.1-0.3c10.6,0,13.5,2.3,13,13
		c-1,21.2-0.9,42.5,0,63.8c0.4,9.8-1.9,13.3-11.7,11.5C2160.9,88.3,2157,88.9,2153.2,88.9z"/>
	<path class="st3" d="M7.4,69.1c5,8.2,11.7,14.8,19.8,19.8C7.4,88.9,7.4,88.9,7.4,69.1z"/>
	<path class="st2" d="M1668,76.6c20.5-20,41.1-40,61.6-60.1c2.4-2.4,4.9-4.1,8.6-4.1c32.3,0.1,64.7,0,98.9,3.3
		c-21,20.7-42.1,41.3-63.1,62c-2.3,2.2-4.8,2.7-7.7,2.7c-32,0-63.9,0-95.9,0C1669.5,79.1,1668.7,77.8,1668,76.6z"/>
	<path class="st2" d="M665.1,76.8c20.5-20.1,41-40.2,61.6-60.3c2-2,4-4,7.2-4c31.8,0,63.6,0,97.1,3.2c-21,20.7-42.1,41.4-63,62.2
		c-2.3,2.3-4.9,2.6-7.7,2.6c-31,0-62,0-93,0C666.4,79.2,665.7,78,665.1,76.8z"/>
	<path class="st2" d="M429.7,15.8c-20.8,20.3-41.5,40.7-62.3,61c-2.5,2.5-5.3,3.6-8.8,3.6c-29.1-0.1-58.2,0-91.2,0
		c23.5-23.6,44.6-44.7,65.7-65.9c2.7-2.7,6.1-2.1,9.3-2.1c28.3-0.1,56.6,0,84.9,0C428.1,13.5,428.9,14.7,429.7,15.8z"/>
	<path class="st2" d="M1432.6,16.2c-20.2,19.8-40.5,39.4-60.7,59.3c-3.2,3.2-6.4,5-11.1,5c-28.7-0.2-57.5-0.1-90.3-0.1
		c7.5-7.6,12.8-13.1,18.2-18.5c16.4-16.3,30.1-39,49.9-47.1c20.3-8.3,46.4-2.3,69.9-2.5c7.4-0.1,14.8,0,22.2,0
		C1431.4,13.6,1432,14.9,1432.6,16.2z"/>
	<path class="st2" d="M1879.8,76.5c20.3-19.7,40.6-39.4,60.7-59.2c3.2-3.2,6.4-5,11.1-5c28.7,0.2,57.4,0.1,88,0.1
		c-7.7,12.4-19.3,19.4-26.7,29.6c-23,31.8-52.9,45.1-92.1,38.7c-12.7-2.1-26.1-0.3-39.1-0.3C1881,79.1,1880.4,77.8,1879.8,76.5z"/>
	<path class="st2" d="M1031.6,16.3c-20.8,20.3-41.6,40.5-62.4,60.8c-2.1,2.1-4.5,3.3-7.5,3.3c-28.5,0-57.1,0-89.5,0
		c23.3-23.5,44-44.3,64.7-65.2c2.6-2.6,5.8-2.8,9.1-2.8c27.7,0,55.4,0,83.1,0C1029.9,13.7,1030.7,15,1031.6,16.3z"/>
	<path class="st2" d="M67.7,75.7c19.8-18.8,39.7-37.5,59.5-56.4c4.2-4,7.9-7.3,14.5-7.2c27.3,0.4,54.7,0.2,83.6,0.2
		c-3.6,9-10.8,13.7-16.4,19.3c-16.4,16.2-29.5,39.1-50.1,46.8c-19.5,7.3-43.7,1.8-65.9,1.9c-7.4,0-14.9,0-22.3,0
		C69.6,78.8,68.7,77.3,67.7,75.7z"/>
	<path class="st2" d="M1074.6,76.6c20.2-19.8,40.5-39.4,60.6-59.3c3.7-3.7,7.5-5,12.5-5c26.4,0.2,52.8,0.1,80.8,0.1
		c-6.1,11-15.2,17.6-22.7,25.3C1192,51.9,1180,71.1,1163.1,78c-17.4,7.1-39.8,2.1-60.1,2.4c-8.8,0.1-17.7,0-26.5,0
		C1075.9,79.1,1075.2,77.9,1074.6,76.6z"/>
	<path class="st2" d="M621.6,15.5c-21,20.7-42,41.5-63,62.3c-2.2,2.2-4.9,2.6-7.7,2.6c-25.4,0-50.7,0-79.9,0
		c23.5-23.6,44.5-44.7,65.6-65.8c2.7-2.7,6.1-2.1,9.3-2.1c24.5-0.1,49,0,73.5,0C620.1,13.4,620.9,14.5,621.6,15.5z"/>
	<path class="st2" d="M1475.9,77c20.8-20.4,41.5-40.7,62.2-61.1c2.5-2.5,5.3-3.6,8.8-3.5c25.3,0.1,50.7,0,79.9,0
		c-23.5,23.6-44.6,44.8-65.7,65.9c-2.7,2.7-6.1,2.1-9.3,2.1c-24.5,0.1-49,0-73.6,0C1477.4,79.2,1476.7,78.1,1475.9,77z"/>
	<path class="st2" d="M2080.3,80.1c23.7-23.3,44.1-43.8,65.1-63.8c5.6-5.3,16.1,0.1,18.1,10.3c2.6,12.9,2.3,26.3,0.1,39.2
		c-1.3,7.9-7.7,13.8-15.8,14.1C2126.8,80.6,2105.9,80.1,2080.3,80.1z"/>
</g>
</svg>
