<?xml version="1.0" encoding="utf-8"?>
<!-- Generator: Adobe Illustrator 22.0.0, SVG Export Plug-In . SVG Version: 6.00 Build 0)  -->
<svg version="1.1" id="图层_1" xmlns="http://www.w3.org/2000/svg" xmlns:xlink="http://www.w3.org/1999/xlink" x="0px" y="0px"
	 viewBox="0 0 99.2 150.2" style="enable-background:new 0 0 99.2 150.2;" xml:space="preserve">
<style type="text/css">
	.st0{fill:#5D5F62;}
</style>
<path class="st0" d="M48.8,46.8C34.5,34.8,31.2,25,36.9,13.3C41.8,3.2,53.1-1.8,64.5,1.1c9.9,2.5,17.3,12.5,17.2,23.3
	c-0.1,12.1-8.2,20.2-24.1,23.8c0,12.1,0,24.2,0,37.4c5.8-1.1,11.3-2.6,16.8-3.1c2.4-0.2,4.9,1.7,7.3,2.6c-1.8,1.7-3.3,4.2-5.4,4.9
	c-5.4,1.7-11.2,2.5-16.7,3.8c-6.9,1.6-10.6-0.7-10.2-8.3c0.1-1.3-0.2-2.6-1.6-4.2c-1.1,3.8-2.8,7.6-3.2,11.4
	c-0.2,1.9,1.7,4.9,3.5,5.8c4.6,2.3,9.6,3.7,14.6,5.4c9.5,3.2,9.9,4.3,4.7,13.1c-0.7,1.1-1.2,2.3-2.1,4.1c2.6,0.5,4.8,0.6,6.5,1.5
	c1.2,0.6,2.7,2.7,2.4,3.7c-0.4,1.5-2.1,3.5-3.5,3.6c-3.8,0.4-7.7,0.4-11.4-0.1c-4.8-0.7-6.6-3.7-4.3-8.2c1.5-2.9,3.5-5.5,5.8-9.1
	c-5.8-2.3-11.2-4.4-18.4-7.2c0.5,14.4,0,27.8-14.9,34.4c1.9,2.6,3.5,4.1,4.1,6c0.4,1.1-0.7,2.8-1.2,4.2c-4.3-1.9-8.7-3.4-12.6-5.9
	c-0.7-0.5,0.8-4.7,1.7-7.2c0.3-0.9,1.4-1.6,2.3-2.2c10.3-6.6,13.1-16,12.8-27.9c-0.2-7.9,2.9-15.9,4.7-23.9c0.6-2.9,1.5-5.6,2.3-8.5
	c-0.8-0.3-1.5-0.6-2.3-0.9c-1.5,3.6-3.2,7.2-4.3,10.9c-0.8,2.8-0.3,6.1-1.3,8.8c-0.6,1.5-3.1,2.2-4.8,3.3c-0.9-1.5-2.6-2.9-2.6-4.4
	c-0.2-9.8,2.5-18.6,9-26.4C40,59.7,44.3,53.1,48.8,46.8z"/>
</svg>
