<?xml version="1.0" encoding="utf-8"?>
<!-- Generator: Adobe Illustrator 22.0.0, SVG Export Plug-In . SVG Version: 6.00 Build 0)  -->
<svg version="1.1" id="图层_1" xmlns="http://www.w3.org/2000/svg" xmlns:xlink="http://www.w3.org/1999/xlink" x="0px" y="0px"
	 viewBox="0 0 99.2 150.2" style="enable-background:new 0 0 99.2 150.2;" xml:space="preserve">
<style type="text/css">
	.st0{fill:#5D5F62;}
</style>
<path class="st0" d="M44.8,112.3c-4.4,16.3-17.8,22.2-31,26c0,4.8,0,8.5,0,12.1c-3.1-2.3-6.7-4.2-9.2-7c-4.2-4.7-3.5-8.9,3-11.1
	c2.1-0.7,4-1.9,6.1-2.5c19.7-5.3,26.8-20.3,29.8-38.5c1.4-8.6,2.4-17.2,3.6-25.8c-0.8-0.6-1.5-1.2-2.3-1.8c-4,3.9-8.2,7.5-11.8,11.7
	c-2.3,2.6-3.2,6.4-5.4,9.1c-1,1.3-3.6,1.3-5.4,2c-0.5-1.8-1.9-4.1-1.2-5.4c4.7-9.1,8.3-19.1,19.2-23.2c1.8-0.7,3.3-1.9,4.9-3
	c7.4-4.9,7.4-6.7,0.3-12c-8.7-6.4-12.2-16.1-9.5-25.9C38.3,7.8,45.9,1.1,54.9,0.1C66-1.2,74.4,3,79.5,12.5
	c6.5,12,0.9,27.1-12.2,32.7c-2.2,1-4.5,1.6-7.6,2.6c3.2,7.5,6,14.9,9.6,21.8c0.8,1.6,4.4,2.5,6.7,2.4c5.4-0.1,10.8-1.3,16.3-1.5
	c1.6,0,3.2,2,4.9,3.1c-1.3,1.5-2.5,4-4,4.3c-7.8,1.3-15.7,2.5-23.5,2.8c-2.1,0.1-5-2.6-6.4-4.8c-2.5-4-4.2-8.5-7.1-14.6
	c-2.1,14-4.1,26-5.4,38.1c-0.3,2.3,1.5,6.3,3.5,7.2c10.5,4.7,17.7,12.3,20.7,21.4c4.8,0,8.2,0,11.6,0c-2,3.1-3.6,6.7-6.1,9.3
	c-5.1,5.1-8.7,2.3-11.2-3.1C64.6,123.9,58,115.7,44.8,112.3z"/>
</svg>
