<?xml version="1.0" encoding="utf-8"?>
<!-- Generator: Adobe Illustrator 22.0.0, SVG Export Plug-In . SVG Version: 6.00 Build 0)  -->
<svg version="1.1" id="图层_1" xmlns="http://www.w3.org/2000/svg" xmlns:xlink="http://www.w3.org/1999/xlink" x="0px" y="0px"
	 viewBox="0 0 99.2 150.2" style="enable-background:new 0 0 99.2 150.2;" xml:space="preserve">
<style type="text/css">
	.st0{fill:#5D5F62;}
</style>
<path class="st0" d="M47,47.2c-3.7-4.9-7.7-8.8-9.9-13.5C31.4,21.8,37.8,7,49.8,2.6c13.3-4.8,27.4,2,31.4,15.4
	c3.8,12.3-3.9,27.3-16.6,29.1c-8.7,1.2-9.7,6.3-10.6,12.4C52.1,72,55.3,77.1,66.9,81.4c1.5,0.6,3.3,0.9,4.5,1.9
	c1.7,1.4,2.9,3.3,4.3,5c-2.3,0.8-4.9,2.7-6.9,2.1c-6.8-1.8-13.3-4.4-19.9-6.7c-5.6,12-5.6,12.1,3.9,20c1.3,1,2.4,2.2,3.6,3.3
	c11.3,10.7,11.3,10.7,6.6,23c1.4,4.5,2.3,7.4,3.2,10.3c-4.9,1-9.8,2-14.8,2.7c-0.2,0-1.3-2.7-1.2-4.2c0.1-1.6,0.9-3.1,1.5-4.6
	c7-17,7-17-9-27.4c-6,10.8-11.9,21.6-17.8,32.3c1.2,2.2,2.7,5,4.2,7.7c-1.6,0.8-3.5,2.6-4.8,2.2c-4.1-1-8-2.8-12-4.3
	c1-2.6,1.4-5.8,3.1-7.8c20.2-24.4,22.5-46.8,28.4-74.8c-9.3,6.2-17.4,12.6-14.2,25.5c0.4,1.5,0.5,3.5-0.2,4.8
	c-0.8,1.6-2.6,2.8-4,4.1c-1.2-1.3-3.4-2.5-3.5-3.8c-0.3-11.4-3.7-23.5,9.3-31.4C37.2,57.6,42,51.8,47,47.2z"/>
</svg>
