<?xml version="1.0" encoding="utf-8"?>
<!-- Generator: Adobe Illustrator 22.0.0, SVG Export Plug-In . SVG Version: 6.00 Build 0)  -->
<svg version="1.1" id="图层_1" xmlns="http://www.w3.org/2000/svg" xmlns:xlink="http://www.w3.org/1999/xlink" x="0px" y="0px"
	 viewBox="0 0 99.2 85" style="enable-background:new 0 0 99.2 85;" xml:space="preserve">
<style type="text/css">
	.st0{opacity:0.8;}
	.st1{fill:#5D5F62;}
	.st2{opacity:0.9;}
</style>
<g class="st0">
	<path class="st1" d="M48.1,46L10.8,83.3c-1.4,1.4-3.6,1.4-4.9,0h0c-1.4-1.4-1.4-3.6,0-4.9l37.3-37.3c1.4-1.4,3.6-1.4,4.9,0l0,0
		C49.4,42.4,49.4,44.6,48.1,46z"/>
	<path class="st1" d="M43.1,45.4L5.8,8.1c-1.4-1.4-1.4-3.6,0-4.9l0,0c1.4-1.4,3.6-1.4,4.9,0l37.3,37.3c1.4,1.4,1.4,3.6,0,4.9l0,0
		C46.7,46.7,44.5,46.7,43.1,45.4z"/>
</g>
<g class="st2">
	<path class="st1" d="M70.7,46L33.4,83.3c-1.4,1.4-3.6,1.4-4.9,0h0c-1.4-1.4-1.4-3.6,0-4.9l37.3-37.3c1.4-1.4,3.6-1.4,4.9,0v0
		C72.1,42.4,72.1,44.6,70.7,46z"/>
	<path class="st1" d="M65.8,45.4L28.5,8.1c-1.4-1.4-1.4-3.6,0-4.9l0,0c1.4-1.4,3.6-1.4,4.9,0l37.3,37.3c1.4,1.4,1.4,3.6,0,4.9l0,0
		C69.4,46.7,67.2,46.7,65.8,45.4z"/>
</g>
<g>
	<path class="st1" d="M93.4,46L56.1,83.3c-1.4,1.4-3.6,1.4-4.9,0h0c-1.4-1.4-1.4-3.6,0-4.9l37.3-37.3c1.4-1.4,3.6-1.4,4.9,0l0,0
		C94.7,42.4,94.7,44.6,93.4,46z"/>
	<path class="st1" d="M88.5,45.4L51.1,8.1c-1.4-1.4-1.4-3.6,0-4.9l0,0c1.4-1.4,3.6-1.4,4.9,0l37.3,37.3c1.4,1.4,1.4,3.6,0,4.9l0,0
		C92,46.7,89.8,46.7,88.5,45.4z"/>
</g>
</svg>
