<?xml version="1.0" encoding="utf-8"?>
<!-- Generator: Adobe Illustrator 22.0.0, SVG Export Plug-In . SVG Version: 6.00 Build 0)  -->
<svg version="1.1" id="图层_1" xmlns="http://www.w3.org/2000/svg" xmlns:xlink="http://www.w3.org/1999/xlink" x="0px" y="0px"
	 viewBox="0 0 45.4 85" style="enable-background:new 0 0 45.4 85;" xml:space="preserve">
<style type="text/css">
	.st0{fill:#5D5F62;}
</style>
<g>
	<path class="st0" d="M43.8,45.3L6.5,82.6c-1.4,1.4-3.6,1.4-4.9,0h0c-1.4-1.4-1.4-3.6,0-4.9l37.3-37.3c1.4-1.4,3.6-1.4,4.9,0l0,0
		C45.2,41.7,45.2,43.9,43.8,45.3z"/>
	<path class="st0" d="M38.9,44.7L1.6,7.4C0.2,6,0.2,3.8,1.6,2.4l0,0c1.4-1.4,3.6-1.4,4.9,0l37.3,37.3c1.4,1.4,1.4,3.6,0,4.9l0,0
		C42.4,46,40.2,46,38.9,44.7z"/>
</g>
</svg>
