<?xml version="1.0" encoding="utf-8"?>
<!-- Generator: Adobe Illustrator 22.0.0, SVG Export Plug-In . SVG Version: 6.00 Build 0)  -->
<svg version="1.1" id="图层_1" xmlns="http://www.w3.org/2000/svg" xmlns:xlink="http://www.w3.org/1999/xlink" x="0px" y="0px"
	 viewBox="0 0 99 170" style="enable-background:new 0 0 99 170;" xml:space="preserve">
<style type="text/css">
	.st0{opacity:0.8;}
	.st1{fill:#5D5F62;stroke:#FAFAFA;stroke-width:0.5;stroke-miterlimit:10;}
	.st2{fill:#5D5F62;stroke:#FAFAFA;stroke-width:0.75;stroke-miterlimit:10;}
	.st3{fill:#5D5F62;}
</style>
<g class="st0">
	<polygon class="st1" points="24.1,50.5 22.7,48 22.7,30.1 21.7,30.1 21.7,48 20.3,50.5 	"/>
	
		<rect x="27.1" y="18.4" transform="matrix(0.7071 -0.7071 0.7071 0.7071 -6.0083 35.0711)" class="st2" width="24.4" height="12.8"/>
	<polygon class="st2" points="37.7,22.5 18.3,33.6 29.4,14.2 48.8,3.1 	"/>
</g>
<path class="st3" d="M62.5,78.5l6.7,12.7c0,0,7.7,10.8,7,4.1c-0.5-4.5-4.4-10.6-5.8-14c-1.8-4.3-8-17.3-8-17.3l0,0l0,0
	c1.8-2.2,1.8-2.2,1.8-2.2c9.9-4.1,15.9-14.3,14.6-24.7c-1.3-10.5-9.6-18.8-18.7-20c-11.9-1.6-21.6,3.2-25.9,12.7
	c-2.5,5.6-2.8,11.4-1.3,16.8c1.8,6.1,5.7,9.7,8.2,12c2.7,2.5,5.3,4.1,7.3,5.1l0,0c-2.8,4.3-4.6,9.9-7.1,16.3
	c-1.7,4.5-2.1,6.4-3.8,11.5c-3.7,10.9,1.1,12.1,4.1,4.8c6.3-15.2,6.9-18.2,6.9-18.2l-2.7,36.4l0,0V125l0,0l1.4,14.7l0,0L47,160.5
	l0,0c0,0.6-0.4,2.2-0.7,2.7l0,0c0,0-1.6,2.2-1.7,2.9c-0.1,0.3-0.1,1.7-0.2,2.1c-0.1,1.2,0.6,2,1.8,2h9.2c0.3,0,0.7-0.1,1-0.2
	c0.4,0.1,1.2,0.1,2.8,0.2l0,0l8.8-0.3h1.5c0.7,0,1.2-0.5,1.2-1.1c0.1-0.8-0.4-3.1-0.7-3.3c-0.9-0.5-2.2-1.3-3.3-1.8
	c-1.2-0.6-2.8-1.7-2.8-2.1c-0.4-5.3,1.7-15.9,1.7-21.2c0-7.9-2.2-30-2.7-34.4c-0.1-0.5-0.1-0.8-0.1-0.8L62.5,78.5z M58.4,160.6
	c0,0.6-0.6,2.9-1.1,4.5l0,0c-0.6-0.3-1.4-0.7-1.8-1c-0.6-0.4-1.6-3.2-1.7-3.9c-0.3-3.2,0.5-10.5,0.4-20.7
	c-0.1-8.3-1.1-16.3-0.8-19.6c0.1-1,3.4-0.9,3.5,0.1c0.6,5.1,1.9,13.5,2,21C59,150.4,58.1,155.3,58.4,160.6z"/>
</svg>
