<?xml version="1.0" encoding="utf-8"?>
<!-- Generator: Adobe Illustrator 22.0.0, SVG Export Plug-In . SVG Version: 6.00 Build 0)  -->
<svg version="1.1" id="图层_1" xmlns="http://www.w3.org/2000/svg" xmlns:xlink="http://www.w3.org/1999/xlink" x="0px" y="0px"
	 viewBox="0 0 99.2 150.2" style="enable-background:new 0 0 99.2 150.2;" xml:space="preserve">
<style type="text/css">
	.st0{fill:#5D5F62;}
</style>
<path class="st0" d="M59.3,72.7c-0.4,1.3-0.9,2.6-1.2,3.9c-2.2,7.9-7.7,16.9-5.5,23.3c2.1,6.2,12.5,9.4,18.6,14.6
	c2.2,1.8,3.6,5.7,3.7,8.7c0.2,5-0.9,10.1-1.6,15.9c3.7-0.8,6.4-1.9,9-1.8c2,0.1,3.9,1.7,5.9,2.6c-1.2,1.5-2.2,3.9-3.8,4.4
	c-4.6,1.6-9.4,2.8-14.2,3.7c-4.7,0.9-6.5-1.7-6.2-6.1c0-0.5,0.3-1.1,0.3-1.6c3-20.9,3-20.9-17.5-31.4c-7.4,14.3-17.4,26-35.9,27.9
	c1.5,3,3,4.5,3.1,6.2c0.1,1.8-0.6,4.1-1.9,5.3c-0.6,0.6-3.7-0.3-4.8-1.4c-8.3-8.4-7.3-14.8,4-17.7c19.4-5,27.8-19.4,33.6-36.3
	c3.6-10.5,6.3-21.3,9.3-32c-0.7-0.6-1.4-1.1-2.1-1.7c-3.4,3.9-7.3,7.4-10.1,11.7c-2.2,3.3-2.6,7.8-4.5,11.3c-1,1.8-3.7,2.7-5.7,4.1
	c-0.5-2.3-1.8-4.8-1.3-6.9c2.8-12.3,7.8-23.2,20.6-28.3c2-0.8,3.7-2.3,5.2-3.3c-3.4-5.1-7.5-9.6-9.6-14.8
	c-4.9-12.4,2.4-26.3,14.9-30c13.7-4,27.1,3.8,30.2,17.5c3,13-6.1,26.2-19.4,28.3c-8.4,1.3-9,3-7.4,11.2c2.8,14.6,8.3,25.4,25.9,24.1
	c1.9-0.1,4,3.1,6,4.7c-2.5,1-4.9,2-7.5,2.8c-0.7,0.2-1.6-0.3-2.4-0.4c-12.7-0.6-26-0.5-25.9-20C60.7,71.6,60,72.2,59.3,72.7z"/>
</svg>
