<?xml version="1.0" encoding="utf-8"?>
<!-- Generator: Adobe Illustrator 22.0.0, SVG Export Plug-In . SVG Version: 6.00 Build 0)  -->
<svg version="1.1" id="图层_1" xmlns="http://www.w3.org/2000/svg" xmlns:xlink="http://www.w3.org/1999/xlink" x="0px" y="0px"
	 viewBox="0 0 99 170" style="enable-background:new 0 0 99 170;" xml:space="preserve">
<style type="text/css">
	.st0{fill:#5D5F62;}
</style>
<path class="st0" d="M54.1,106.6c0.5,6.4-0.5,11.4,1.4,15c6.7,13,12.2,25.7,2.2,37.8c3.7,3.2,6.4,5.5,9.1,7.7c-3.8,1-7.7,3-11.4,2.8
	c-9.3-0.4-10-2-6.5-10.5c1.4-3.3,2.3-6.8,4.1-9.8c3.1-5.4,2.7-10.3-1.9-15.5c-7.8,10.3-12.8,26.4-31.7,15.2c0,3,0.4,4.7-0.1,6
	c-0.7,1.8-2,3.3-3.1,4.9c-1.5-1.2-3.1-2.4-4.6-3.7c-0.3-0.3-0.4-1-0.5-1.5c-0.4-4.5-0.7-9-1.1-13.4c4.4,0.4,9,0.3,13.2,1.4
	c10.1,2.6,17.3-2.7,20.4-15.7c3.5-14.4,7-28.9,9.6-44.1c-2.2,3.9-4.9,7.6-6.5,11.7c-1.5,3.8-1.4,8.1-2.7,11.9
	c-0.6,1.9-2.9,3.2-4.5,4.8c-1-2.2-3.1-4.4-3-6.5c0.8-12.2,3.3-23.7,15.4-30.4c3-1.6,5.2-4.5,6-5.2c-4.2-8.4-9.8-15.3-11.1-22.9
	C44.7,34,54.4,23.2,66.4,21.8c13.2-1.5,24.2,6.2,26.8,18.6c2.4,11.8-4.6,24.4-16.7,27.1c-6,1.4-8.2,4-8.6,9.5
	c-0.1,1.1-0.6,2.1-0.8,3.2c-1.2,6.4-5,14-2.9,18.9c2,4.7,10.5,6.3,15.8,9.8c1.9,1.2,2.8,3.9,4.1,5.9c-2.6,0.4-5.6,1.8-7.8,1
	C69.6,113.7,63.3,110.5,54.1,106.6z"/>
</svg>
