<?xml version="1.0" encoding="utf-8"?>
<!-- Generator: Adobe Illustrator 22.0.0, SVG Export Plug-In . SVG Version: 6.00 Build 0)  -->
<svg version="1.1" id="图层_1" xmlns="http://www.w3.org/2000/svg" xmlns:xlink="http://www.w3.org/1999/xlink" x="0px" y="0px"
	 viewBox="0 0 70.9 181.4" style="enable-background:new 0 0 70.9 181.4;" xml:space="preserve">
<style type="text/css">
	.st0{fill:#5D5F62;stroke:#FAFAFA;stroke-width:0.5;stroke-miterlimit:10;}
	.st1{fill:#5D5F62;stroke:#FAFAFA;stroke-width:0.75;stroke-miterlimit:10;}
	.st2{fill:#5D5F62;}
</style>
<g>
	<polygon class="st0" points="10.9,54.5 9.5,52 9.5,34.1 8.5,34.1 8.5,52 7.1,54.5 	"/>
	
		<rect x="13.9" y="22.4" transform="matrix(0.7071 -0.7071 0.7071 0.7071 -12.7333 26.8508)" class="st1" width="24.4" height="12.8"/>
	<polygon class="st1" points="24.5,26.5 5.1,37.6 16.2,18.2 35.6,7.1 	"/>
</g>
<path class="st2" d="M49.3,82.5L56,95.2c0,0,7.7,10.8,7,4.1c-0.5-4.5-4.4-10.6-5.8-14c-1.8-4.3-8-17.3-8-17.3c0,0,0,0,0,0l0,0
	c1.8-2.2,1.8-2.2,1.8-2.2c9.9-4.1,15.9-14.3,14.6-24.7c-1.3-10.5-9.6-18.8-18.7-20c-11.9-1.6-21.6,3.2-25.9,12.7
	c-2.5,5.6-2.8,11.4-1.3,16.8c1.8,6.1,5.7,9.7,8.2,12c2.7,2.5,5.3,4.1,7.3,5.1c0,0,0,0,0,0c-2.8,4.3-4.6,9.9-7.1,16.3
	c-1.7,4.5-2.1,6.4-3.8,11.5c-3.7,10.9,1.1,12.1,4.1,4.8c6.3-15.2,6.9-18.2,6.9-18.2l-2.7,36.4c0,0,0,0,0,0V129c0,0,0,0,0,0l1.4,14.7
	c0,0,0,0,0,0l-0.2,20.8c0,0,0,0,0,0c0,0.6-0.4,2.2-0.7,2.7c0,0,0,0,0,0c0,0-1.6,2.2-1.7,2.9c-0.1,0.3-0.1,1.7-0.2,2.1
	c-0.1,1.2,0.6,2,1.8,2l9.2,0c0.3,0,0.7-0.1,1-0.2c0.4,0.1,1.2,0.1,2.8,0.2c0,0,0,0,0,0l8.8-0.3l1.5,0c0.7,0,1.2-0.5,1.2-1.1
	c0.1-0.8-0.4-3.1-0.7-3.3c-0.9-0.5-2.2-1.3-3.3-1.8c-1.2-0.6-2.8-1.7-2.8-2.1c-0.4-5.3,1.7-15.9,1.7-21.2c0-7.9-2.2-30-2.7-34.4
	c-0.1-0.5-0.1-0.8-0.1-0.8L49.3,82.5z M45.2,164.6c0,0.6-0.6,2.9-1.1,4.5c0,0,0,0,0,0c-0.6-0.3-1.4-0.7-1.8-1
	c-0.6-0.4-1.6-3.2-1.7-3.9c-0.3-3.2,0.5-10.5,0.4-20.7c-0.1-8.3-1.1-16.3-0.8-19.6c0.1-1,3.4-0.9,3.5,0.1c0.6,5.1,1.9,13.5,2,21
	C45.8,154.4,44.9,159.3,45.2,164.6z"/>
</svg>
