<?xml version="1.0" encoding="utf-8"?>
<!-- Generator: Adobe Illustrator 22.0.0, SVG Export Plug-In . SVG Version: 6.00 Build 0)  -->
<svg version="1.1" id="图层_1" xmlns="http://www.w3.org/2000/svg" xmlns:xlink="http://www.w3.org/1999/xlink" x="0px" y="0px"
	 viewBox="0 0 99 170" style="enable-background:new 0 0 99 170;" xml:space="preserve">
<style type="text/css">
	.st0{fill:#5D5F62;}
</style>
<path class="st0" d="M53.5,122.2c3.2,3.3,6.2,6.9,9.6,10c5,4.6,4,7.6-1.9,10.1c-11.6,4.9-11.7,5.2-15.8,18.7c1.6,0.3,3.3,0.2,4.6,1
	c1.4,0.9,3.3,2.5,3.3,3.7c-0.1,1.4-2,3.5-3.4,3.7c-4,0.5-8.4,1.1-12.2,0.1c-8.2-2.3-1.5-7.2-1.3-11.1c-8.5-8.2-7.7-12.9,3-17.2
	c1.7-0.7,3.7-1.5,4.7-2.8c2-2.7-0.5-27.9-3.2-30.3c-7.4-6.6-6.8-13-1.2-20.4c4.4-5.8,8-12.3,12.2-18.7c-2.8-1.9-5.3-3.5-7.6-5.3
	c-8.8-7-11.5-18.4-6.9-28.7c4.3-9.5,14-14.3,25.9-12.7c9.7,1.3,17.4,9.5,18.7,20c1.4,10.7-4.2,21.4-14.6,24.7
	c-6.5,2-8.4,5.5-8.8,11.4c-0.3,5.2-1.2,10.3-1.6,15.4c-0.5,8,0.4,15.2,9.2,19c2,0.9,2.9,4.3,4.3,6.6c-2.9-0.1-5.8-0.2-8.7-0.2
	c-2.7,0-5.4,0-8.2,0C53.6,120,53.5,121.1,53.5,122.2z"/>
</svg>
